# xmcd
# 
# Track frame offsets:
#     187
#     23812
#     38137
#     62137
#     71287
#     83887
#     92710
#     110137
#     122512
#     142387
#     164137
#     177902
# 
# Disc length: 2565
# 
# Revision: 13
# Processed by: cddbd v1.5.2PL0 Copyright (c) Steve Scherf et al.
# Submitted via: BonkEnc v1.0
# 
DISCID=ac0a030c
DTITLE=The Yardbirds - Blue Eyed Blues
DYEAR=1972
DGENRE=Blues
TTITLE0=23 Hours Too Long
TTITLE1=Out On The Water Coast
TTITLE2=Five Long Years
TTITLE3=I Aint't Got You
TTITLE4=Good Morning Little Schoolgirl
TTITLE5=Little Red Rooster (Rehearsal)
TTITLE6=Little Red Rooster
TTITLE7=Highway 49
TTITLE8=Wang-Dang-Doodle
TTITLE9=I'm A Man
TTITLE10=Jeff's Blues
TTITLE11=I See A Man Downstairs
EXTD=YEAR: 1972
EXTT0=
EXTT1=
EXTT2=
EXTT3=
EXTT4=
EXTT5=
EXTT6=
EXTT7=
EXTT8=
EXTT9=
EXTT10=
EXTT11=
PLAYORDER=
